<?xml version="1.0" encoding="UTF-8" standalone="no"?>
<svg
   xmlns:dc="http://purl.org/dc/elements/1.1/"
   xmlns:cc="http://creativecommons.org/ns#"
   xmlns:rdf="http://www.w3.org/1999/02/22-rdf-syntax-ns#"
   xmlns:svg="http://www.w3.org/2000/svg"
   xmlns="http://www.w3.org/2000/svg"
   xmlns:sodipodi="http://sodipodi.sourceforge.net/DTD/sodipodi-0.dtd"
   xmlns:inkscape="http://www.inkscape.org/namespaces/inkscape"
   width="210mm"
   height="297mm"
   viewBox="0 0 210 297"
   version="1.1"
   id="svg8"
   sodipodi:docname="tannhjólin.svg"
   inkscape:version="1.0.1 (3bc2e813f5, 2020-09-07)">
  <defs
     id="defs2" />
  <sodipodi:namedview
     id="base"
     pagecolor="#ffffff"
     bordercolor="#666666"
     borderopacity="1.0"
     inkscape:pageopacity="0.0"
     inkscape:pageshadow="2"
     inkscape:zoom="0.98994949"
     inkscape:cx="473.18372"
     inkscape:cy="495.02062"
     inkscape:document-units="mm"
     inkscape:current-layer="layer1"
     inkscape:document-rotation="0"
     showgrid="false"
     inkscape:window-width="1920"
     inkscape:window-height="1017"
     inkscape:window-x="-8"
     inkscape:window-y="-8"
     inkscape:window-maximized="1" />
  <metadata
     id="metadata5">
    <rdf:RDF>
      <cc:Work
         rdf:about="">
        <dc:format>image/svg+xml</dc:format>
        <dc:type
           rdf:resource="http://purl.org/dc/dcmitype/StillImage" />
        <dc:title />
      </cc:Work>
    </rdf:RDF>
  </metadata>
  <g
     inkscape:label="Layer 1"
     inkscape:groupmode="layer"
     id="layer1">
    <g
       inkscape:label="Rendered Gears"
       transform="translate(25.879807,144.98763)"
       id="g17">
      <path
         style="fill:none;stroke:#000000;stroke-width:0.264583"
         d="m 4.6685,-1.00118 1.18078,-0.25322 0.39459,0.01242 1.70222,0.81147 V 0.43051 L 6.24387,1.24198 5.84928,1.2544 4.6685,1.00118 4.00907,2.59319 5.02306,3.24907 5.2933,3.53687 5.92315,5.31432 5.31432,5.92315 3.53687,5.2933 3.24907,5.02306 2.59319,4.00907 1.00118,4.6685 1.2544,5.84928 1.24198,6.24387 0.43051,7.94609 H -0.43051 L -1.24198,6.24387 -1.2544,5.84928 -1.00118,4.6685 -2.59319,4.00907 -3.24907,5.02306 -3.53687,5.2933 -5.31432,5.92315 -5.92315,5.31432 -5.2933,3.53687 -5.02306,3.24907 -4.00907,2.59319 -4.6685,1.00118 -5.84928,1.2544 -6.24387,1.24198 -7.94609,0.43051 v -0.86102 l 1.70222,-0.81147 0.39459,-0.01242 1.18078,0.25322 0.65943,-1.59201 -1.01399,-0.65588 -0.27024,-0.2878 -0.62985,-1.77745 0.60883,-0.60883 1.77745,0.62985 0.2878,0.27024 0.65588,1.01399 1.59201,-0.65943 -0.25322,-1.18078 0.01242,-0.39459 0.81147,-1.70222 h 0.86102 l 0.81147,1.70222 0.01242,0.39459 -0.25322,1.18078 1.59201,0.65943 0.65588,-1.01399 0.2878,-0.27024 1.77745,-0.62985 0.60883,0.60883 -0.62985,1.77745 -0.27024,0.2878 -1.01399,0.65588 z"
         id="path13" />
      <circle
         style="fill:none;stroke:#000000;stroke-width:0.264583"
         id="path15"
         cx="0"
         cy="0"
         r="0.75" />
    </g>
    <g
       inkscape:label="Rendered Gears"
       transform="translate(25.935907,114.75805)"
       id="g34">
      <path
         style="fill:none;stroke:#000000;stroke-width:0.264583"
         d="m 11.0697,-0.39609 0.8184,-0.09295 0.783,0.10207 1.643,0.71836 v 1.05926 l -1.643,0.71836 -0.783,0.10207 -0.8184,-0.09295 -0.3616,1.81766 0.7917,0.22733 0.6843,0.39392 L 13.4272,5.8495 13.0219,6.82812 11.229,6.86303 10.4665,6.6577 9.74599,6.25863 8.71637,7.79956 l 0.64444,0.513 0.48146,0.62581 0.65383,1.66978 -0.74897,0.74897 -1.66978,-0.65383 -0.62581,-0.48146 -0.513,-0.64444 -1.54093,1.02962 0.39907,0.72051 0.20533,0.7625 -0.03491,1.7929 -0.97862,0.4053 -1.29246,-1.2431 -0.39392,-0.6843 -0.22733,-0.7917 -1.81766,0.3616 0.09295,0.8184 -0.10207,0.783 -0.71836,1.643 h -1.05926 l -0.71836,-1.643 -0.10207,-0.783 0.09295,-0.8184 -1.81766,-0.3616 -0.22733,0.7917 -0.39392,0.6843 -1.29246,1.2431 -0.97862,-0.4053 -0.03491,-1.7929 0.20533,-0.7625 0.39907,-0.72051 -1.54093,-1.02962 -0.513,0.64444 -0.62581,0.48146 -1.66978,0.65383 -0.74897,-0.74897 0.65383,-1.66978 0.48146,-0.62581 0.64444,-0.513 -1.02962,-1.54093 -0.72051,0.39907 -0.7625,0.20533 -1.7929,-0.03491 -0.4053,-0.97862 1.2431,-1.29246 0.6843,-0.39392 0.7917,-0.22733 -0.3616,-1.81766 -0.8184,0.09295 -0.783,-0.10207 -1.643,-0.71836 V 0.33139 l 1.643,-0.71836 0.783,-0.10207 0.8184,0.09295 0.3616,-1.81766 -0.7917,-0.22733 -0.6843,-0.39392 -1.2431,-1.29246 0.4053,-0.97862 1.7929,-0.03491 0.7625,0.20533 0.72051,0.39907 1.02962,-1.54093 -0.64444,-0.513 -0.48146,-0.62581 -0.65383,-1.66978 0.74897,-0.74897 1.66978,0.65383 0.62581,0.48146 0.513,0.64444 1.54093,-1.02962 -0.39907,-0.72051 -0.20533,-0.7625 0.03491,-1.7929 0.97862,-0.4053 1.29246,1.2431 0.39392,0.6843 0.22733,0.7917 1.81766,-0.3616 -0.09295,-0.8184 0.10207,-0.783 0.71836,-1.643 h 1.05926 l 0.71836,1.643 0.10207,0.783 -0.09295,0.8184 1.81766,0.3616 0.22733,-0.7917 0.39392,-0.6843 1.29246,-1.2431 0.97862,0.4053 0.03491,1.7929 -0.20533,0.7625 -0.39907,0.72051 1.54093,1.02962 0.513,-0.64444 0.62581,-0.48146 1.66978,-0.65383 0.74897,0.74897 -0.65383,1.66978 -0.48146,0.62581 -0.64444,0.513 1.02962,1.54093 0.72051,-0.39907 0.7625,-0.20533 1.7929,0.03491 0.4053,0.97862 -1.2431,1.29246 -0.6843,0.39392 -0.7917,0.22733 z"
         id="path30" />
      <circle
         style="fill:none;stroke:#000000;stroke-width:0.264583"
         id="path32"
         cx="0"
         cy="0"
         r="0.75" />
    </g>
    <g
       inkscape:label="Rendered Gears"
       transform="matrix(-1,0,0,1,15.890122,167.91247)"
       id="g45">
      <path
         style="fill:none;stroke:#000000;stroke-width:0.264583"
         d="m 4.6685,-1.00118 1.18078,-0.25322 0.39459,0.01242 1.70222,0.81147 V 0.43051 L 6.24387,1.24198 5.84928,1.2544 4.6685,1.00118 4.00907,2.59319 5.02306,3.24907 5.2933,3.53687 5.92315,5.31432 5.31432,5.92315 3.53687,5.2933 3.24907,5.02306 2.59319,4.00907 1.00118,4.6685 1.2544,5.84928 1.24198,6.24387 0.43051,7.94609 H -0.43051 L -1.24198,6.24387 -1.2544,5.84928 -1.00118,4.6685 -2.59319,4.00907 -3.24907,5.02306 -3.53687,5.2933 -5.31432,5.92315 -5.92315,5.31432 -5.2933,3.53687 -5.02306,3.24907 -4.00907,2.59319 -4.6685,1.00118 -5.84928,1.2544 -6.24387,1.24198 -7.94609,0.43051 v -0.86102 l 1.70222,-0.81147 0.39459,-0.01242 1.18078,0.25322 0.65943,-1.59201 -1.01399,-0.65588 -0.27024,-0.2878 -0.62985,-1.77745 0.60883,-0.60883 1.77745,0.62985 0.2878,0.27024 0.65588,1.01399 1.59201,-0.65943 -0.25322,-1.18078 0.01242,-0.39459 0.81147,-1.70222 h 0.86102 l 0.81147,1.70222 0.01242,0.39459 -0.25322,1.18078 1.59201,0.65943 0.65588,-1.01399 0.2878,-0.27024 1.77745,-0.62985 0.60883,0.60883 -0.62985,1.77745 -0.27024,0.2878 -1.01399,0.65588 z"
         id="path41" />
      <circle
         style="fill:none;stroke:#000000;stroke-width:0.264583"
         id="circle43"
         cx="0"
         cy="0"
         r="0.75" />
    </g>
    <g
       inkscape:label="Rendered Gears"
       transform="translate(86.812276,143.2424)"
       id="g63">
      <path
         style="fill:none;stroke:#000000;stroke-width:0.264583"
         d="m 30.1968,-1.60485 1.6097,0.35517 1.6106,0.6444 v 1.21056 l -1.6106,0.6444 -1.6097,0.35517 -0.1207,1.53388 1.5343,0.6026 1.4899,0.88842 -0.1894,1.19566 -1.6915,0.38451 -1.6454,0.099 -0.3592,1.4961 1.4211,0.8352 1.3327,1.11056 -0.3741,1.15132 -1.7309,0.1152 -1.6406,-0.1597 -0.5888,1.4215 1.2729,1.0472 1.1425,1.3054 -0.5496,1.0786 -1.7276,-0.157 -1.5954,-0.4143 -0.804,1.3119 1.0935,1.2334 0.9242,1.4681 -0.7115,0.9793 -1.6818,-0.4253 -1.511,-0.6588 -0.9992,1.17 0.887,1.3893 0.6832,1.5945 -0.856,0.856 -1.5945,-0.6832 -1.3893,-0.887 -1.17,0.9992 0.6588,1.511 0.4253,1.6818 -0.9793,0.7115 -1.4681,-0.9242 -1.2334,-1.0935 -1.3119,0.804 0.4143,1.5954 0.157,1.7276 -1.0786,0.5496 -1.3054,-1.1425 -1.0472,-1.2729 -1.4215,0.5888 0.1597,1.6406 -0.1152,1.7309 -1.15132,0.3741 -1.11056,-1.3327 -0.8352,-1.4211 -1.4961,0.3592 -0.099,1.6454 -0.38451,1.6915 -1.19566,0.1894 -0.88842,-1.4899 -0.6026,-1.5343 -1.53388,0.1207 -0.35517,1.6097 -0.6444,1.6106 h -1.21056 l -0.6444,-1.6106 -0.35517,-1.6097 -1.53388,-0.1207 -0.6026,1.5343 -0.88842,1.4899 -1.19566,-0.1894 -0.38451,-1.6915 -0.099,-1.6454 -1.4961,-0.3592 -0.8352,1.4211 -1.11056,1.3327 -1.15132,-0.3741 -0.1152,-1.7309 0.1597,-1.6406 -1.4215,-0.5888 -1.0472,1.2729 -1.3054,1.1425 -1.0786,-0.5496 0.157,-1.7276 0.4143,-1.5954 -1.3119,-0.804 -1.2334,1.0935 -1.4681,0.9242 -0.9793,-0.7115 0.4253,-1.6818 0.6588,-1.511 -1.17,-0.9992 -1.3893,0.887 -1.5945,0.6832 -0.856,-0.856 0.6832,-1.5945 0.887,-1.3893 -0.9992,-1.17 -1.511,0.6588 -1.6818,0.4253 -0.7115,-0.9793 0.9242,-1.4681 1.0935,-1.2334 -0.804,-1.3119 -1.5954,0.4143 -1.7276,0.157 -0.5496,-1.0786 1.1425,-1.3054 1.2729,-1.0472 -0.5888,-1.4215 -1.6406,0.1597 -1.7309,-0.1152 -0.3741,-1.15132 1.3327,-1.11056 1.4211,-0.8352 -0.3592,-1.4961 -1.6454,-0.099 -1.6915,-0.38451 -0.1894,-1.19566 1.4899,-0.88842 1.5343,-0.6026 -0.1207,-1.53388 -1.6097,-0.35517 -1.6106,-0.6444 v -1.21056 l 1.6106,-0.6444 1.6097,-0.35517 0.1207,-1.53388 -1.5343,-0.6026 -1.4899,-0.88842 0.1894,-1.19566 1.6915,-0.38451 1.6454,-0.099 0.3592,-1.4961 -1.4211,-0.8352 -1.3327,-1.11056 0.3741,-1.15132 1.7309,-0.1152 1.6406,0.1597 0.5888,-1.4215 -1.2729,-1.0472 -1.1425,-1.3054 0.5496,-1.0786 1.7276,0.157 1.5954,0.4143 0.804,-1.3119 -1.0935,-1.2334 -0.9242,-1.4681 0.7115,-0.9793 1.6818,0.4253 1.511,0.6588 0.9992,-1.17 -0.887,-1.3893 -0.6832,-1.5945 0.856,-0.856 1.5945,0.6832 1.3893,0.887 1.17,-0.9992 -0.6588,-1.511 -0.4253,-1.6818 0.9793,-0.7115 1.4681,0.9242 1.2334,1.0935 1.3119,-0.804 -0.4143,-1.5954 -0.157,-1.7276 1.0786,-0.5496 1.3054,1.1425 1.0472,1.2729 1.4215,-0.5888 -0.1597,-1.6406 0.1152,-1.7309 1.15132,-0.3741 1.11056,1.3327 0.8352,1.4211 1.4961,-0.3592 0.099,-1.6454 0.38451,-1.6915 1.19566,-0.1894 0.88842,1.4899 0.6026,1.5343 1.53388,-0.1207 0.35517,-1.6097 0.6444,-1.6106 h 1.21056 l 0.6444,1.6106 0.35517,1.6097 1.53388,0.1207 0.6026,-1.5343 0.88842,-1.4899 1.19566,0.1894 0.38451,1.6915 0.099,1.6454 1.4961,0.3592 0.8352,-1.4211 1.11056,-1.3327 1.15132,0.3741 0.1152,1.7309 -0.1597,1.6406 1.4215,0.5888 1.0472,-1.2729 1.3054,-1.1425 1.0786,0.5496 -0.157,1.7276 -0.4143,1.5954 1.3119,0.804 1.2334,-1.0935 1.4681,-0.9242 0.9793,0.7115 -0.4253,1.6818 -0.6588,1.511 1.17,0.9992 1.3893,-0.887 1.5945,-0.6832 0.856,0.856 -0.6832,1.5945 -0.887,1.3893 0.9992,1.17 1.511,-0.6588 1.6818,-0.4253 0.7115,0.9793 -0.9242,1.4681 -1.0935,1.2334 0.804,1.3119 1.5954,-0.4143 1.7276,-0.157 0.5496,1.0786 -1.1425,1.3054 -1.2729,1.0472 0.5888,1.4215 1.6406,-0.1597 1.7309,0.1152 0.3741,1.15132 -1.3327,1.11056 -1.4211,0.8352 0.3592,1.4961 1.6454,0.099 1.6915,0.38451 0.1894,1.19566 -1.4899,0.88842 -1.5343,0.6026 z"
         id="path59" />
      <circle
         style="fill:none;stroke:#000000;stroke-width:0.264583"
         id="path61"
         cx="0"
         cy="0"
         r="0.75" />
    </g>
    <g
       inkscape:label="Rendered Gears"
       transform="translate(37.662232,166.04158)"
       id="g74">
      <path
         style="fill:none;stroke:#000000;stroke-width:0.264583"
         d="m 4.6685,-1.00118 1.18078,-0.25322 0.39459,0.01242 1.70222,0.81147 V 0.43051 L 6.24387,1.24198 5.84928,1.2544 4.6685,1.00118 4.00907,2.59319 5.02306,3.24907 5.2933,3.53687 5.92315,5.31432 5.31432,5.92315 3.53687,5.2933 3.24907,5.02306 2.59319,4.00907 1.00118,4.6685 1.2544,5.84928 1.24198,6.24387 0.43051,7.94609 H -0.43051 L -1.24198,6.24387 -1.2544,5.84928 -1.00118,4.6685 -2.59319,4.00907 -3.24907,5.02306 -3.53687,5.2933 -5.31432,5.92315 -5.92315,5.31432 -5.2933,3.53687 -5.02306,3.24907 -4.00907,2.59319 -4.6685,1.00118 -5.84928,1.2544 -6.24387,1.24198 -7.94609,0.43051 v -0.86102 l 1.70222,-0.81147 0.39459,-0.01242 1.18078,0.25322 0.65943,-1.59201 -1.01399,-0.65588 -0.27024,-0.2878 -0.62985,-1.77745 0.60883,-0.60883 1.77745,0.62985 0.2878,0.27024 0.65588,1.01399 1.59201,-0.65943 -0.25322,-1.18078 0.01242,-0.39459 0.81147,-1.70222 h 0.86102 l 0.81147,1.70222 0.01242,0.39459 -0.25322,1.18078 1.59201,0.65943 0.65588,-1.01399 0.2878,-0.27024 1.77745,-0.62985 0.60883,0.60883 -0.62985,1.77745 -0.27024,0.2878 -1.01399,0.65588 z"
         id="path70" />
      <circle
         style="fill:none;stroke:#000000;stroke-width:0.264583"
         id="circle72"
         cx="0"
         cy="0"
         r="0.75" />
    </g>
  </g>
</svg>
